<svg id="Layer_1" data-name="Layer 1" xmlns="http://www.w3.org/2000/svg" width="488.97" height="728.9" viewBox="0 0 488.97 728.9"><defs><style>.cls-1{fill:#7bb82c;}</style></defs><title>billie-eilish-logo</title><path class="cls-1" d="M522.34,15.46c6.28-4.52,14.42-5.35,21.92-4.73,6,.51,12.43,2.52,16.24,7.5,2.14,2.53,2.61,5.91,3.15,9.06-5.58,0-11.16.09-16.75-.05-1.68-4.93-8.42-6-12.28-3.12-1.6,1.06-.79,3.28.87,3.74,7.68,2.72,16,3.59,23.31,7.47A13.24,13.24,0,0,1,565.3,42a15.51,15.51,0,0,1-3.66,16.37c-5.15,5-12.62,6.73-19.6,7-8.08.2-16.82-1.58-22.8-7.39-3.09-3-4.45-7.19-4.81-11.37,5.84,0,11.68.08,17.52,0,.77,1.83,1.33,4.12,3.34,5a13.59,13.59,0,0,0,11.35,0,3,3,0,0,0,1.58-4,9.4,9.4,0,0,0-3.9-2.08c-6.16-1.94-12.57-3.14-18.52-5.7-4.17-1.75-7.92-5.14-8.93-9.68A13.75,13.75,0,0,1,522.34,15.46Z" transform="translate(-130.52 -10.55)"/><path class="cls-1" d="M130.55,11.7c10.65.1,21.32,0,32,.06,4.66.09,9.79.76,13.31,4.14a12.94,12.94,0,0,1,3.43,13.43c-.91,2.76-3.34,4.53-5.6,6.17,3,1.58,6,3.52,7.53,6.7,3.32,6.6.93,15.62-5.44,19.48-3.49,2.25-7.79,2.43-11.81,2.5-11.14,0-22.29,0-33.43,0C130.59,46.69,130.55,29.19,130.55,11.7Zm17.36,12.05c0,2.57,0,5.15,0,7.72,4.35-.21,8.74.43,13.06-.23,3.51-.57,3.73-6.39.18-7.06C156.78,23.29,152.3,24,147.91,23.75Zm0,18.43c0,3,0,6.08,0,9.12,4.7-.13,9.45.31,14.13-.25a4.36,4.36,0,0,0,3.92-4.8c-.18-2.49-2.78-3.73-5-4C156.62,42,152.26,42.3,147.91,42.18Z" transform="translate(-130.52 -10.55)"/><path class="cls-1" d="M185.13,11.73c6,0,12,0,18,0q0,26.25,0,52.47c-6,0-12,0-17.94,0C185.13,46.72,185.2,29.23,185.13,11.73Z" transform="translate(-130.52 -10.55)"/><path class="cls-1" d="M206.5,11.71c5.95,0,11.91,0,17.86,0,.07,12.85,0,25.69,0,38.53,8.55,0,17.11,0,25.66,0,.18,4.66.07,9.32.11,14-14.57,0-29.13,0-43.7,0C206.49,46.71,206.38,29.21,206.5,11.71Z" transform="translate(-130.52 -10.55)"/><path class="cls-1" d="M253.78,11.74c6,0,12,0,17.92,0,.13,12.85.05,25.7,0,38.55q12.86,0,25.71,0c0,4.65,0,9.3,0,13.94-14.57,0-29.13,0-43.7,0C253.85,46.7,253.81,29.22,253.78,11.74Z" transform="translate(-130.52 -10.55)"/><path class="cls-1" d="M301.34,11.75c6,0,12,0,17.94,0,0,17.48,0,35,0,52.44H301.35Q301.38,38,301.34,11.75Z" transform="translate(-130.52 -10.55)"/><path class="cls-1" d="M323.12,11.77c16.72,0,33.43-.06,50.14,0-.14,4.34-.1,8.7,0,13.05-10.92.11-21.85-.11-32.78.16q0,3.09,0,6.15c10.93.19,21.86.06,32.78.07q0,6.07,0,12.16c-10.93,0-21.84-.07-32.76,0,0,2.29.05,4.58.13,6.87,10.9,0,21.79-.06,32.68,0-.11,4.63-.09,9.27,0,13.9-16.68,0-33.37-.06-50.06,0C323.11,46.75,323.16,29.26,323.12,11.77Z" transform="translate(-130.52 -10.55)"/><path class="cls-1" d="M377.26,11.74c16.56,0,33.13,0,49.69,0Q427,18.31,427,25c-10.78-.2-21.55-.08-32.33-.1q0,3.18,0,6.36c10.79,0,21.59,0,32.38,0q0,6,0,12c-10.78.28-21.58.05-32.37.13q0,3.45,0,6.9c10.79,0,21.59,0,32.39,0,0,4.65,0,9.3,0,13.95-16.56,0-33.12,0-49.68,0C377.13,46.74,377.28,29.24,377.26,11.74Z" transform="translate(-130.52 -10.55)"/><path class="cls-1" d="M429.8,11.76c6-.06,12,0,18,0,0,17.47,0,34.95,0,52.43-6,.1-12,0-17.94.07C429.74,46.75,429.84,29.25,429.8,11.76Z" transform="translate(-130.52 -10.55)"/><path class="cls-1" d="M449.56,11.77c6-.07,11.92,0,17.89-.07.05,12.84,0,25.69,0,38.54,8.58,0,17.15,0,25.73,0,0,4.65,0,9.3,0,13.95-14.55,0-29.1,0-43.65,0C449.56,46.73,449.5,29.25,449.56,11.77Z" transform="translate(-130.52 -10.55)"/><path class="cls-1" d="M495,11.75c6,0,11.94,0,17.92,0,.07,17.5,0,35,0,52.5-6,0-12,0-18,0C495,46.71,494.9,29.23,495,11.75Z" transform="translate(-130.52 -10.55)"/><path class="cls-1" d="M568.24,11.73c5.77,0,11.54,0,17.31,0,.06,5.92,0,11.83,0,17.75,5.53,0,11,0,16.58,0,0-5.9,0-11.82,0-17.72,5.79-.06,11.57,0,17.36,0q0,26.24,0,52.45c-5.8,0-11.6,0-17.41,0,.13-6.91,0-13.82.08-20.72-5.53,0-11-.09-16.58,0q0,10.36,0,20.71c-5.8,0-11.59,0-17.38,0C568.25,46.72,568.16,29.22,568.24,11.73Z" transform="translate(-130.52 -10.55)"/><path class="cls-1" d="M316.39,100.93a47,47,0,0,1,31.7,5.43,46.51,46.51,0,1,1-31.7-5.43Z" transform="translate(-130.52 -10.55)"/><path class="cls-1" d="M452.36,150.63a44.29,44.29,0,0,1,31.46,3.92c14.29,7.45,23.74,23.4,23,39.55q0,92.27,0,184.54c0,8.09-3.24,16.32-9.54,21.54-9.58,8.29-25.13,8.14-34.68-.12a27.79,27.79,0,0,1-9.42-21.36q-.06-62.18-.06-124.36c-.13-4.64-.22-9.29.08-13.94,0-1.38.31-2.87-.42-4.12-1.88-1.14-4.78-1-5.92,1.12-.66,3.15-.39,6.42-.5,9.62q-.13,88.6,0,177.24c-.13,14.26.29,28.52.17,42.78q0,82.76,0,165.52c-.22,8.8.94,18-2.31,26.41-3.17,8.75-10.65,15.34-19.06,18.95a31.6,31.6,0,0,1-24.28.81c-9.6-3.72-18.14-11.3-21.26-21.31-2.48-7-1.71-14.61-1.8-21.94q.1-93.47,0-186.94c.45-2.92-3.21-3.24-5.2-2.53-1.45.36-1.52,2-1.59,3.26Q371,571.4,371,693.56c-.2,8,.7,16.28-2.23,23.92-3.8,10.94-14.1,18.59-25.11,21.2-17.26,4.06-36.37-8.51-39.74-25.87-1.17-5.34-1-10.85-1-16.28q0-191.58-.06-383.16c-1.17,0-2.33.05-3.49.09a15.87,15.87,0,0,0-.72,4.93q0,64.37-.14,128.73c.32,6.62-.61,13.51-4.2,19.2a27.33,27.33,0,0,1-20.65,13.17A28.2,28.2,0,0,1,251,471.16a26.62,26.62,0,0,1-7.68-18.92c-.1-50-.82-100,.09-150,.33-8.6,0-17.27,1.47-25.78a78.8,78.8,0,0,1,13.36-33.66c7.2-10.4,17.11-18.73,28.09-24.91,6.27-3.6,13-6.28,19.64-9,44.91-18.67,90.17-36.45,135.38-54.36A84.38,84.38,0,0,1,452.36,150.63Z" transform="translate(-130.52 -10.55)"/></svg>